<svg xmlns="http://www.w3.org/2000/svg">
    <symbol id="icon-home" viewBox="0 0 24 24">
        <path d="M4 10.5 12 4l8 6.5"></path>
        <path d="M6 9.75V20h12V9.75M9 20v-6h6v6"></path>
    </symbol>
    <symbol id="icon-plus" viewBox="0 0 24 24">
        <path d="M12 5v14M5 12h14"></path>
    </symbol>
    <symbol id="icon-search" viewBox="0 0 24 24">
        <circle cx="11" cy="11" r="6.5"></circle>
        <path d="m16 16 5 5"></path>
    </symbol>
    <symbol id="icon-chart" viewBox="0 0 24 24">
        <path d="M4 19V5h16v14"></path>
        <path d="M8 16v-3M12 16V8M16 16v-6"></path>
    </symbol>
    <symbol id="icon-users" viewBox="0 0 24 24">
        <circle cx="9" cy="8" r="3"></circle>
        <path d="M3.5 20c.5-3.3 2.3-5 5.5-5s5 1.7 5.5 5M15 6.5a3 3 0 0 1 0 5.8M16 15c2.5.2 4 1.8 4.5 4"></path>
    </symbol>
    <symbol id="icon-user" viewBox="0 0 24 24">
        <circle cx="12" cy="8" r="3.5"></circle>
        <path d="M4 20a8 8 0 0 1 16 0"></path>
    </symbol>
    <symbol id="icon-gear" viewBox="0 0 24 24">
        <circle cx="12" cy="12" r="3"></circle>
        <path d="M19 12a7 7 0 0 0-.2-1.7l2-1.5-2-3.4-2.4 1a7 7 0 0 0-2.9-1.7L13.2 2h-4l-.4 2.7A7 7 0 0 0 6 6.4l-2.4-1-2 3.4 2 1.5a7 7 0 0 0 0 3.4l-2 1.5 2 3.4 2.4-1a7 7 0 0 0 2.8 1.7l.4 2.7h4l.4-2.7a7 7 0 0 0 2.9-1.7l2.4 1 2-3.4-2-1.5c.1-.5.2-1.1.2-1.7Z"></path>
    </symbol>
    <symbol id="icon-logout" viewBox="0 0 24 24">
        <path d="M10 17l5-5-5-5"></path>
        <path d="M15 12H3"></path>
        <path d="M15 3h4a2 2 0 0 1 2 2v14a2 2 0 0 1-2 2h-4"></path>
    </symbol>
</svg>
